HIERARCHY
ROOT Hips
{
 OFFSET 0.000000 0.000000 0.000000
 CHANNELS 6 Xposition Yposition Zposition Yrotation Xrotation Zrotation
 JOINT Chest
 {
  OFFSET 0.000000 9.585900 0.002600
  CHANNELS 3 Yrotation Xrotation Zrotation
  JOINT Chest2
  {
   OFFSET 0.000000 9.601200 -0.005300
   CHANNELS 3 Yrotation Xrotation Zrotation
   JOINT Chest3
   {
    OFFSET 0.000000 9.561800 0.000000
    CHANNELS 3 Yrotation Xrotation Zrotation
    JOINT Chest4
    {
     OFFSET 0.000000 9.552100 0.000000
     CHANNELS 3 Yrotation Xrotation Zrotation
     JOINT Neck
     {
      OFFSET 0.000000 14.453000 0.000000
      CHANNELS 3 Yrotation Xrotation Zrotation
      JOINT Head
      {
       OFFSET 0.000000 8.936500 -0.011300
       CHANNELS 3 Yrotation Xrotation Zrotation
       End Site
       {
        OFFSET 0.000000 17.073600 -0.006000
       }
      }
     }
     JOINT RightCollar
     {
      OFFSET -2.921100 9.558500 0.000000
      CHANNELS 3 Yrotation Xrotation Zrotation
      JOINT RightShoulder
      {
       OFFSET -13.519700 0.000000 0.000000
       CHANNELS 3 Yrotation Xrotation Zrotation
       JOINT RightElbow
       {
        OFFSET 0.000000 -29.696600 0.000000
        CHANNELS 3 Yrotation Xrotation Zrotation
        JOINT RightWrist
        {
         OFFSET 0.000000 -24.004700 0.000000
         CHANNELS 3 Yrotation Xrotation Zrotation
         End Site
         {
          OFFSET 0.000000 -17.728500 0.000000
         }
        }
       }
      }
     }
     JOINT LeftCollar
     {
      OFFSET 2.921100 9.558500 0.000000
      CHANNELS 3 Yrotation Xrotation Zrotation
      JOINT LeftShoulder
      {
       OFFSET 13.519700 0.000000 0.000000
       CHANNELS 3 Yrotation Xrotation Zrotation
       JOINT LeftElbow
       {
        OFFSET 0.000000 -29.696600 0.000000
        CHANNELS 3 Yrotation Xrotation Zrotation
        JOINT LeftWrist
        {
         OFFSET 0.000000 -24.004700 0.000000
         CHANNELS 3 Yrotation Xrotation Zrotation
         End Site
         {
          OFFSET 0.000000 -17.728500 0.000000
         }
        }
       }
      }
     }
    }
   }
  }
 }
 JOINT RightHip
 {
  OFFSET -7.771700 -0.012900 -0.001300
  CHANNELS 3 Yrotation Xrotation Zrotation
  JOINT RightKnee
  {
   OFFSET 0.000000 -40.869800 0.001200
   CHANNELS 3 Yrotation Xrotation Zrotation
   JOINT RightAnkle
   {
    OFFSET 0.000000 -39.717900 0.002100
    CHANNELS 3 Yrotation Xrotation Zrotation
    JOINT RightToe
    {
     OFFSET 0.000000 -4.965400 11.033500
     CHANNELS 3 Yrotation Xrotation Zrotation
     End Site
     {
      OFFSET 0.000000 -1.423100 5.872300
     }
    }
   }
  }
 }
 JOINT LeftHip
 {
  OFFSET 7.771700 -0.012900 -0.001300
  CHANNELS 3 Yrotation Xrotation Zrotation
  JOINT LeftKnee
  {
   OFFSET 0.000000 -40.869800 0.001200
   CHANNELS 3 Yrotation Xrotation Zrotation
   JOINT LeftAnkle
   {
    OFFSET 0.000000 -39.717900 0.002100
    CHANNELS 3 Yrotation Xrotation Zrotation
    JOINT LeftToe
    {
     OFFSET 0.000000 -4.965400 11.033500
     CHANNELS 3 Yrotation Xrotation Zrotation
     End Site
     {
      OFFSET 0.000000 -1.423100 5.872300
     }
    }
   }
  }
 }
}
MOTION
Frames: 8
Frame Time: 0.008333
-46.297454 62.112010 13.210018 177.044719 -50.790842 -0.099142 4.221744 26.858068 -1.110343 0.694383 4.507483 -0.253331 1.098412 7.163298 -0.311545 3.277256 21.659987 -0.660797 -5.647918 16.141487 3.517086 -11.719197 -5.236590 8.506973 6.826230 6.958827 6.930311 -1.260476 -13.636046 -12.798370 -113.132809 -54.859562 150.188450 14.822218 1.387205 -3.274865 -10.410224 4.458902 -1.388960 -7.634350 -14.361010 21.843529 151.809865 -60.341676 -167.869251 8.374888 -15.127171 12.902763 4.116405 -15.936641 -6.645243 2.143317 62.519654 -2.307602 1.407989 -9.756506 10.635640 0.036541 -0.180053 0.013525 0.027355 -4.934965 6.882487 126.767479 84.002973 135.207157 -5.215795 -16.921001 -9.782657 0.394240 -21.794604 -1.077951
-46.296399 62.112404 13.208590 177.056287 -50.796807 -0.103631 4.214843 26.861186 -1.135457 0.693973 4.502156 -0.254692 1.098421 7.167248 -0.319796 3.271321 21.652145 -0.675247 -5.630329 16.212226 3.561840 -11.704584 -5.046665 8.579524 6.852257 7.007198 6.913197 -1.321866 -13.674466 -12.739610 -113.014804 -54.920762 150.068555 14.715774 1.212137 -3.372904 -10.364730 4.468491 -1.367662 -7.235773 -14.717454 21.699174 153.658721 -60.107059 -169.053348 8.185617 -15.464080 13.912204 4.113808 -15.929324 -6.641803 2.121537 62.522046 -2.331654 1.407232 -9.759799 10.636842 0.039665 -0.177061 0.017018 0.022220 -4.928786 6.888693 126.658567 83.994288 135.093826 -5.245379 -16.921966 -9.779234 0.397388 -21.793677 -1.073416
-46.295605 62.112333 13.207647 177.073717 -50.800922 -0.114587 4.209208 26.846849 -1.172145 0.692423 4.508768 -0.238103 1.094927 7.167893 -0.327963 3.267969 21.644819 -0.688377 -5.605414 16.250862 3.600629 -11.694970 -4.806708 8.652018 6.887708 7.038039 6.928102 -1.388068 -13.683650 -12.714621 -112.871168 -55.006111 149.916832 14.616647 1.069468 -3.460877 -10.330114 4.487280 -1.341415 -6.797120 -15.098199 21.525370 155.292685 -59.907108 -170.092478 8.037248 -15.706041 14.895694 4.108407 -15.923829 -6.640022 2.116806 62.524226 -2.335100 1.401156 -9.763131 10.635884 0.040439 -0.175424 0.019156 0.015460 -4.926254 6.891727 126.662949 83.994525 135.100263 -5.255332 -16.922254 -9.778940 0.401943 -21.794277 -1.070554
-46.295093 62.112036 13.207025 177.091905 -50.804954 -0.128911 4.203446 26.837091 -1.186889 0.690054 4.515739 -0.230160 1.091549 7.139326 -0.368315 3.277539 21.653014 -0.675064 -5.600705 16.412893 3.659261 -11.657184 -4.667006 8.726249 6.919034 7.070449 6.951442 -1.427286 -13.690357 -12.696465 -112.714738 -55.124260 149.720127 14.535002 0.965334 -3.542686 -10.297934 4.513879 -1.315917 -6.341592 -15.487309 21.329060 156.731456 -59.738138 -170.999535 7.929084 -15.844967 15.853006 4.100948 -15.918931 -6.637555 2.142420 62.525751 -2.310408 1.387868 -9.763954 10.635413 0.031742 -0.175147 0.018130 0.010344 -4.925453 6.897973 126.699613 83.996381 135.141851 -5.266016 -16.920116 -9.779861 0.407811 -21.797643 -1.065001
-46.295656 62.111864 13.206422 177.108633 -50.811470 -0.140929 4.200113 26.826470 -1.202128 0.686060 4.524573 -0.222408 1.093965 7.122621 -0.382312 3.276835 21.646847 -0.686356 -5.586477 16.545766 3.714953 -11.628092 -4.471439 8.803056 6.937604 7.099398 6.986001 -1.455784 -13.685231 -12.690599 -112.548489 -55.261417 149.502358 14.478794 0.907564 -3.609586 -10.250356 4.545400 -1.296665 -5.895789 -15.874776 21.120803 157.975731 -59.601409 -171.771295 7.851943 -15.866571 16.787833 4.096177 -15.911677 -6.638550 2.155493 62.527217 -2.294700 1.383034 -9.763113 10.636475 0.034847 -0.176980 0.016902 0.001810 -4.921307 6.898082 126.708226 83.995634 135.152791 -5.266864 -16.915669 -9.789348 0.410448 -21.801517 -1.057750
-46.296411 62.111686 13.206015 177.124770 -50.819188 -0.157114 4.201610 26.816470 -1.209546 0.684978 4.519447 -0.226951 1.095687 7.119792 -0.381936 3.277397 21.647641 -0.687368 -5.570481 16.659185 3.763089 -11.600108 -4.242768 8.883999 6.967852 7.134591 6.990473 -1.527574 -13.674763 -12.661877 -112.398085 -55.400835 149.309757 14.451291 0.903040 -3.648287 -10.197068 4.568235 -1.287009 -5.445989 -16.257163 20.891540 159.014533 -59.513357 -172.408076 7.805430 -15.770879 17.697564 4.091738 -15.902607 -6.634588 2.161010 62.526487 -2.285169 1.379961 -9.760953 10.638133 0.036899 -0.176591 0.016196 -0.006949 -4.916069 6.902452 126.708051 83.989428 135.153537 -5.270857 -16.914277 -9.790988 0.407595 -21.804635 -1.054994
-46.298312 62.111123 13.206073 177.131305 -50.824904 -0.164894 4.207506 26.809079 -1.213350 0.684551 4.512554 -0.233956 1.095211 7.127167 -0.372692 3.277859 21.651671 -0.683513 -5.554261 16.763540 3.800951 -11.569099 -4.002078 8.969788 7.012268 7.164328 6.961359 -1.612324 -13.673279 -12.617376 -112.272680 -55.555175 149.119132 14.456158 0.950115 -3.658656 -10.146297 4.579880 -1.289721 -4.961737 -16.648853 20.625707 159.825072 -59.493801 -172.924186 7.808186 -15.560912 18.570245 4.089532 -15.896751 -6.630979 2.169869 62.525514 -2.277314 1.377116 -9.759241 10.639650 0.033808 -0.177351 0.016088 -0.010261 -4.912058 6.903928 126.689108 83.983706 135.135817 -5.275507 -16.913080 -9.795503 0.408558 -21.806991 -1.051053
-46.301490 62.110640 13.206212 177.139041 -50.831873 -0.171300 4.206261 26.811616 -1.214368 0.692132 4.496753 -0.245841 1.091407 7.135165 -0.365279 3.289411 21.614884 -0.718756 -5.527155 16.920240 3.882749 -11.535336 -3.749594 9.059905 7.048766 7.222676 6.985827 -1.705425 -13.620562 -12.586672 -112.229654 -55.696880 149.021354 14.492543 1.044004 -3.655566 -10.104984 4.636775 -1.251938 -4.424516 -17.054197 20.323619 160.344759 -59.569151 -173.295355 7.879700 -15.225982 19.389082 4.086088 -15.889288 -6.630235 2.178009 62.524291 -2.271090 1.374150 -9.757967 10.640953 0.036503 -0.176358 0.017603 -0.013630 -4.907232 6.903062 126.700002 83.980351 135.146270 -5.278961 -16.911960 -9.793520 0.410192 -21.809291 -1.049999
